# xmcd CD database file
#
# Track frame offsets:
#	150
#	13572
#	19662
#	44445
#	60350
#	70877
#	93480
#	103545
#	106892
#	122992
#	139330
#	153225
#	168872
#	183397
#	195210
#	209012
#	222472
#	234955
#	239917
#	251347
#	271045
#
# Disc length: 3794 seconds
#
# Revision: 2
# Processed by: cddbd v1.4PL0 Copyright (c) Steve Scherf et al.
# Submitted via: CDex 1.40PlusFr
#
DISCID=220ed015
DTITLE=Marylin Monroe - Diamonds Are A Girl's Best Friend
DYEAR=1900
DGENRE=Country
TTITLE0=I Wanna Be Love By You
TTITLE1=Some Like It Hot
TTITLE2=Bye Bye Baby
TTITLE3=Diamonds Are A Girl's Best Friend
TTITLE4=A Fine Romance
TTITLE5=My heart Belong To daddy
TTITLE6=River Of No Return
TTITLE7=Happy Birthday Mister President
TTITLE8=Lazy
TTITLE9=After You get Whar You Want
TTITLE10=A little Girl From Little Rock
TTITLE11=When Love Goes Wrong Nothing Goes Right
TTITLE12=Do It Again
TTITLE13=I'm Gonna File My Claims
TTITLE14=You'd Be Surprised
TTITLE15=When I Fall In Love
TTITLE16=She Acts Like A Woman Should
TTITLE17=Running Wild
TTITLE18=I'm Trough With Love
TTITLE19=HeatWave
TTITLE20=Kiss
EXTD=ID3G: 2
EXTT0=
EXTT1=
EXTT2=
EXTT3=
EXTT4=
EXTT5=
EXTT6=
EXTT7=
EXTT8=
EXTT9=
EXTT10=
EXTT11=
EXTT12=
EXTT13=
EXTT14=
EXTT15=
EXTT16=
EXTT17=
EXTT18=
EXTT19=
EXTT20=
PLAYORDER=
